<svg xmlns="http://www.w3.org/2000/svg" width="36.811" height="40.131" viewBox="0 0 36.811 40.131">
  <path id="bookmark" d="M3.943,39.571l8.769-10.23,8.769,10.23a1.688,1.688,0,0,0,2.943-1.088V25.1H36.137a1.673,1.673,0,0,0,1.673-1.673V8.366A8.376,8.376,0,0,0,29.445,0H9.366A8.376,8.376,0,0,0,1,8.366V38.484a1.69,1.69,0,0,0,2.943,1.088ZM34.464,8.366V21.752H24.425V8.366a5.02,5.02,0,1,1,10.039,0Zm-30.118,0a5.02,5.02,0,0,1,5.02-5.02H22.8a8.279,8.279,0,0,0-1.717,5.02v25.6l-7.1-8.282a1.725,1.725,0,0,0-2.54,0l-7.1,8.282Z" transform="translate(-1)"/>
</svg>
