<svg xmlns="http://www.w3.org/2000/svg" width="25" height="25" viewBox="0 0 25 25">
  <path id="message" d="M16.553,759a12.171,12.171,0,0,1,3.3,23.96,12.6,12.6,0,0,1-5.425.255,11.153,11.153,0,0,0-4.6.229l-1.821.455a3.176,3.176,0,0,1-3.9-3.825l.347-1.336a8.661,8.661,0,0,0,.069-4.427,12.071,12.071,0,0,1-.13-5.735A12.356,12.356,0,0,1,16.553,759m0,2.5a9.828,9.828,0,0,0-9.72,7.6,9.561,9.561,0,0,0,.1,4.554c1.687,6.24-3.247,8.745,2.287,7.36a13.655,13.655,0,0,1,5.631-.266,10.112,10.112,0,0,0,4.355-.206A9.672,9.672,0,0,0,16.553,761.5" transform="translate(-4 -759)" fill-rule="evenodd"/>
</svg>
