<svg xmlns="http://www.w3.org/2000/svg" width="30" height="32" viewBox="0 0 30 32">
  <g id="Groupe_2246" data-name="Groupe 2246" transform="translate(-1)">
    <path id="Tracé_4877" data-name="Tracé 4877" d="M20.5,8.5a11.2,11.2,0,0,1-3.9,8.11l-.12.09A5.659,5.659,0,0,1,13,18a5.659,5.659,0,0,1-3.48-1.3l-.12-.09A11.2,11.2,0,0,1,5.5,8.5a7.5,7.5,0,0,1,15,0Z" fill="none" stroke="#56bc80" stroke-linecap="round" stroke-linejoin="round" stroke-miterlimit="10" stroke-width="2"/>
    <path id="Tracé_4878" data-name="Tracé 4878" d="M23.5,31H2V27A10.975,10.975,0,0,1,9.4,16.61l.12.09A5.66,5.66,0,0,0,13,18a5.659,5.659,0,0,0,3.48-1.3l.12-.09a11.047,11.047,0,0,1,3.75,2.2A6.5,6.5,0,0,0,23.5,31Z" fill="none" stroke="#56bc80" stroke-linecap="round" stroke-linejoin="round" stroke-miterlimit="10" stroke-width="2"/>
    <path id="Tracé_4879" data-name="Tracé 4879" d="M24,30.98V31h-.5C23.67,31,23.83,30.99,24,30.98Z" fill="none" stroke="#56bc80" stroke-linecap="round" stroke-linejoin="round" stroke-miterlimit="10" stroke-width="2"/>
    <path id="Tracé_4880" data-name="Tracé 4880" d="M30,24.5a6.494,6.494,0,0,1-6,6.48c-.17.01-.33.02-.5.02A6.5,6.5,0,1,1,30,24.5Z" fill="none" stroke="#56bc80" stroke-linecap="round" stroke-linejoin="round" stroke-miterlimit="10" stroke-width="2"/>
    <path id="Tracé_4881" data-name="Tracé 4881" d="M21,25l2,2,3-4" fill="none" stroke="#56bc80" stroke-linecap="round" stroke-linejoin="round" stroke-miterlimit="10" stroke-width="2"/>
  </g>
</svg>
