<svg xmlns="http://www.w3.org/2000/svg" width="40" height="40" viewBox="0 0 40 40">
  <g id="Groupe_867" data-name="Groupe 867" transform="translate(-1081.5 -30.47)">
    <g id="Groupe_2151" data-name="Groupe 2151">
      <g id="group" transform="translate(1074.143 23.113)">
        <path id="Tracé_4832" data-name="Tracé 4832" d="M17.951,30.214a6.429,6.429,0,1,1,6.357-6.429A6.393,6.393,0,0,1,17.951,30.214Zm0-10a3.572,3.572,0,1,0,3.531,3.571,3.552,3.552,0,0,0-3.531-3.571Zm14.126,2.857a7.858,7.858,0,1,1,7.769-7.857A7.814,7.814,0,0,1,32.077,23.071Zm0-12.857a5,5,0,1,0,4.944,5A4.972,4.972,0,0,0,32.077,10.214Zm-11.3,37.143h-5.65a7.858,7.858,0,0,1,0-15.714h5.65a7.858,7.858,0,0,1,0,15.714ZM15.126,34.5a5,5,0,0,0,0,10h5.65a5,5,0,0,0,0-10Z" transform="translate(0)"/>
        <path id="Tracé_4833" data-name="Tracé 4833" d="M57.739,77.711H41.966a1.5,1.5,0,0,1,0-3H57.739a8.262,8.262,0,0,0,0-16.524H48.726a1.5,1.5,0,1,1,0-3h9.013a11.266,11.266,0,1,1,0,22.532Z" transform="translate(-21.648 -30.354)"/>
      </g>
    </g>
  </g>
</svg>
