<svg xmlns="http://www.w3.org/2000/svg" width="23.75" height="27.504" viewBox="0 0 23.75 27.504">
  <path id="notification" d="M0,14.734V14.46a4.5,4.5,0,0,1,.752-2.273A6.088,6.088,0,0,0,2.245,9.295c0-.833,0-1.678.073-2.511C2.693,2.773,6.659,0,10.576,0h.1c3.917,0,7.883,2.773,8.271,6.784.073.833,0,1.678.061,2.511A6.193,6.193,0,0,0,20.5,12.2a4.384,4.384,0,0,1,.752,2.261v.262a4.458,4.458,0,0,1-1.055,2.987,5.631,5.631,0,0,1-3.566,1.714,56.342,56.342,0,0,1-12.018,0,5.693,5.693,0,0,1-3.566-1.714A4.5,4.5,0,0,1,0,14.734Zm7.568,8.831a3.857,3.857,0,0,0,5.36.631,3.611,3.611,0,0,0,.655-.631" transform="translate(1.25 1.25)" fill="none" stroke="#000" stroke-linecap="round" stroke-linejoin="round" stroke-width="2.5" fill-rule="evenodd"/>
</svg>
